<svg xmlns="http://www.w3.org/2000/svg" viewBox="0 0 800 400" fill="none">
  <rect width="800" height="400" rx="16" fill="#0b1220"/>
  <text x="40" y="42" font-family="Inter, system-ui, sans-serif" font-size="18" font-weight="600" fill="#f1f5f9">SOC Skills Catalog — Top Subdomains</text>
  <text x="40" y="64" font-family="Inter, system-ui, sans-serif" font-size="12" fill="#64748b">329 SOC-relevant skills from 817 total</text>
  <!-- bars: label, count, width -->
  <g font-family="Inter, system-ui, sans-serif" font-size="12">
    <text x="200" y="100" fill="#94a3b8" text-anchor="end">threat-hunting</text>
    <rect x="210" y="86" width="464" height="20" rx="4" fill="#06b6d4" opacity="0.75"/>
    <text x="690" y="100" fill="#64748b">58</text>
    <text x="200" y="132" fill="#94a3b8" text-anchor="end">cloud-security</text>
    <rect x="210" y="118" width="422" height="20" rx="4" fill="#06b6d4" opacity="0.7"/>
    <text x="690" y="132" fill="#64748b">66</text>
    <text x="200" y="164" fill="#94a3b8" text-anchor="end">threat-intelligence</text>
    <rect x="210" y="150" width="336" height="20" rx="4" fill="#22d3ee" opacity="0.7"/>
    <text x="690" y="164" fill="#64748b">52</text>
    <text x="200" y="196" fill="#94a3b8" text-anchor="end">network-security</text>
    <rect x="210" y="182" width="278" height="20" rx="4" fill="#22d3ee" opacity="0.65"/>
    <text x="690" y="196" fill="#64748b">43</text>
    <text x="200" y="228" fill="#94a3b8" text-anchor="end">malware-analysis</text>
    <rect x="210" y="214" width="252" height="20" rx="4" fill="#8b5cf6" opacity="0.65"/>
    <text x="690" y="228" fill="#64748b">39</text>
    <text x="200" y="260" fill="#94a3b8" text-anchor="end">soc-operations</text>
    <rect x="210" y="246" width="226" height="20" rx="4" fill="#8b5cf6" opacity="0.6"/>
    <text x="690" y="260" fill="#64748b">35</text>
    <text x="200" y="292" fill="#94a3b8" text-anchor="end">incident-response</text>
    <rect x="210" y="278" width="168" height="20" rx="4" fill="#a78bfa" opacity="0.6"/>
    <text x="690" y="292" fill="#64748b">26</text>
    <text x="200" y="324" fill="#94a3b8" text-anchor="end">digital-forensics</text>
    <rect x="210" y="310" width="264" height="20" rx="4" fill="#a78bfa" opacity="0.55"/>
    <text x="690" y="324" fill="#64748b">41</text>
  </g>
  <text x="400" y="375" text-anchor="middle" font-family="Inter, system-ui, sans-serif" font-size="11" fill="#475569">Skill router matches incidents → top playbooks by keyword + MITRE</text>
</svg>